<svg version="1.1" id="Layer_1" xmlns="http://www.w3.org/2000/svg" xmlns:xlink="http://www.w3.org/1999/xlink" x="0px" y="0px"
	 width="100%" viewBox="0 0 624 416" enable-background="new 0 0 624 416" xml:space="preserve">
<path fill="#000000" opacity="1.000000" stroke="none" 
	d="
M463.000000,417.000000 
	C308.703613,417.000000 154.907242,417.000000 1.055428,417.000000 
	C1.055428,278.403625 1.055428,139.807190 1.055428,1.105391 
	C208.879730,1.105391 416.759552,1.105391 624.819702,1.105391 
	C624.819702,139.666473 624.819702,278.333221 624.819702,417.000000 
	C571.140442,417.000000 517.320251,417.000000 463.000000,417.000000 
M286.164703,344.306702 
	C310.634888,354.736938 334.308777,353.576050 357.490051,340.114594 
	C435.720886,294.685852 514.047974,249.422760 592.329895,204.081955 
	C598.816345,200.324997 605.396423,196.697800 611.654602,192.586517 
	C619.841675,187.208038 619.752136,179.843933 611.754883,174.115234 
	C610.808716,173.437454 609.814209,172.819214 608.803772,172.240265 
	C585.822266,159.072220 562.844421,145.897812 539.847900,132.756088 
	C478.952240,97.956367 418.074280,63.125572 357.135040,28.402344 
	C331.016968,13.520230 304.383026,13.549239 277.928192,27.196634 
	C264.322998,34.215233 251.320419,42.399750 238.025543,50.022556 
	C173.572922,86.977364 109.109802,123.913864 44.661758,160.876648 
	C37.436817,165.020370 30.148962,169.078003 23.130995,173.553055 
	C14.099278,179.312195 14.161724,186.885223 23.017359,192.910309 
	C24.391260,193.845078 25.877682,194.615906 27.321033,195.446976 
	C76.260040,223.625412 125.192017,251.816086 174.142700,279.974243 
	C211.251892,301.320709 248.385117,322.625427 286.164703,344.306702 
M376.516174,338.088165 
	C370.765106,341.451508 365.074585,344.923676 359.252625,348.159515 
	C332.407623,363.080170 304.882080,363.711212 278.175659,349.080933 
	C241.518036,328.999207 205.598999,307.568268 169.382553,286.682373 
	C120.613777,258.557587 71.866447,230.395599 23.099773,202.267166 
	C18.186789,199.433380 16.412352,200.398727 16.362381,206.001968 
	C16.279173,215.332153 16.682255,224.680664 16.224092,233.989151 
	C15.846170,241.667450 19.095739,246.628738 25.501137,250.234390 
	C36.239964,256.279388 46.898529,262.467407 57.572472,268.627167 
	C125.230583,307.671448 192.865601,346.755768 260.558929,385.738892 
	C270.075897,391.219513 279.061188,397.869690 289.388947,401.666840 
	C314.741608,410.988098 338.683655,407.842010 362.105560,394.050934 
	C428.849518,354.751373 495.963135,316.079559 562.934448,277.166168 
	C578.057373,268.379089 593.205322,259.635193 608.316284,250.827637 
	C613.388733,247.871094 617.619019,244.216324 617.636475,237.666901 
	C617.665405,226.836487 617.721802,216.005280 617.619019,205.175797 
	C617.571716,200.190918 615.734924,199.282120 611.385254,201.804642 
	C586.605225,216.175217 561.827026,230.548935 537.050659,244.925827 
	C483.748718,275.855225 430.448334,306.787170 376.516174,338.088165 
z"/>
<path fill="#000000" opacity="1.000000" stroke="none" 
	d="
M361.046387,236.116241 
	C353.834045,240.342178 346.978394,244.457291 340.027954,248.405518 
	C324.024231,257.496521 307.447540,258.416443 291.410583,249.424225 
	C255.388031,229.225723 219.660278,208.497559 183.949997,187.748444 
	C172.852692,181.300446 173.266098,171.343933 184.752502,164.492386 
	C201.344193,154.595551 218.118958,145.005417 234.825607,135.301651 
	C250.956039,125.932556 267.083801,116.558746 283.240540,107.235153 
	C303.358276,95.625778 323.323425,94.954094 343.766846,107.006317 
	C375.760590,125.867912 408.045990,144.235504 440.245209,162.747375 
	C455.909943,171.753281 456.041443,180.913040 440.415680,190.018768 
	C414.086700,205.361710 387.714203,220.629959 361.046387,236.116241 
M326.284088,108.203827 
	C312.634430,104.345108 299.954407,107.022606 287.928528,113.947723 
	C269.168854,124.750534 250.404190,135.544998 231.683578,146.415192 
	C217.571381,154.609497 203.461655,162.811905 189.481750,171.228134 
	C184.267273,174.367355 184.275284,177.812592 189.313736,181.151321 
	C193.330704,183.813141 197.707947,185.924637 201.833694,188.431137 
	C204.724060,190.187103 207.465363,190.109390 210.313522,188.477295 
	C216.381149,185.000320 222.484039,181.584412 228.533798,178.076782 
	C248.699585,166.384750 268.766815,154.519958 289.028809,142.997406 
	C305.863953,133.423630 322.770020,132.772430 339.580170,143.485672 
	C345.752594,147.419388 352.242249,150.856232 358.596069,154.504288 
	C378.237335,165.781311 397.871552,177.070816 417.542450,188.295990 
	C419.785034,189.575714 422.108246,191.589340 424.933685,189.981186 
	C430.285065,186.935333 435.690308,183.936478 440.763794,180.465775 
	C444.444519,177.947815 444.181976,175.198715 440.545990,172.456223 
	C439.090515,171.358414 437.470917,170.468048 435.884430,169.555588 
	C412.643524,156.188904 389.504364,142.639954 366.106323,129.553986 
	C353.191895,122.331261 340.898163,113.929466 326.284088,108.203827 
z"/>
</svg>