<?xml version="1.0" encoding="UTF-8"?>
<svg version="1.1" xmlns="http://www.w3.org/2000/svg" width="631" height="421">
<path d="M0 0 C4.09846791 2.38962453 8.21070725 4.75512603 12.32202148 7.12255859 C18.93310426 10.93036062 25.53831649 14.74834524 32.14404297 18.56542969 C44.96722702 25.97490071 57.80411455 33.3593744 70.66720581 40.6993103 C80.32185314 46.20895864 89.95567586 51.75406049 99.58105469 57.31469727 C110.27960895 63.49307127 121.00576463 69.62268737 131.73974609 75.73925781 C149.45364711 85.83321258 167.10161614 96.04156164 184.69799805 106.33886719 C190.17366972 109.53679997 195.66403144 112.70705332 201.17382812 115.84570312 C201.79169189 116.19779343 202.40955566 116.54988373 203.04614258 116.91264343 C206.03769896 118.61650249 209.03103251 120.31707226 212.02685547 122.01342773 C217.71293827 125.24538952 223.37132522 128.52045307 228.97070312 131.90039062 C230.00783447 132.52405518 231.04496582 133.14771973 232.11352539 133.7902832 C236.96674767 137.09978086 241.02807872 141.0647049 242.90429688 146.69335938 C243.01333096 148.72082809 243.06323016 150.75166438 243.08129883 152.78198242 C243.09413406 154.03726242 243.1069693 155.29254242 243.12019348 156.58586121 C243.12836317 157.95892948 243.13580646 159.33200224 243.14257812 160.70507812 C243.14665365 161.39842569 243.15072918 162.09177326 243.15492821 162.80613136 C243.17577616 166.47874273 243.1900812 170.15131691 243.19946289 173.82397461 C243.21050195 177.60226821 243.24487554 181.37996875 243.28463459 185.1580534 C243.3108884 188.07588227 243.3191626 190.99357198 243.32274437 193.91150856 C243.32759077 195.30327149 243.33914887 196.69502902 243.35778236 198.08667564 C243.47057045 207.07147622 243.37744349 213.86254624 237.01733398 220.73120117 C230.45952066 225.50850526 223.5431171 229.54945486 216.46679688 233.50585938 C215.21857973 234.21083645 213.97069865 234.91640887 212.72314453 235.62255859 C205.0945182 239.93351743 197.44748754 244.21433387 189.76196289 248.4230957 C185.26670552 250.89301108 180.86226055 253.4940134 176.47119141 256.14453125 C160.75468066 265.6276532 144.84991955 274.7917726 128.93994141 283.94482422 C123.73199273 286.94460936 118.53354664 289.96076723 113.3347168 292.97631836 C109.32679904 295.29876552 105.30968157 297.60343365 101.2800293 299.88793945 C96.40758414 302.65132454 91.59504472 305.47942634 86.84179688 308.44335938 C80.57102164 312.33530511 74.1789831 315.9886866 67.76074219 319.63110352 C59.82827961 324.14249965 51.95709631 328.75385632 44.09179688 333.38085938 C35.87498886 338.21340748 27.6479543 343.01761333 19.31762695 347.65283203 C13.86744724 350.69165726 8.49446426 353.85544174 3.12280273 357.03051758 C-2.45818793 360.32694478 -8.0665683 363.56866207 -13.71289062 366.75195312 C-15.99092091 368.05932155 -18.24631722 369.4068464 -20.47851562 370.79101562 C-39.9761445 382.82865786 -62.59176593 385.08731217 -85.07714844 380.65966797 C-106.86623677 375.29386617 -127.04450385 360.0254504 -146.01757812 348.52880859 C-152.95657369 344.32551203 -159.89792107 340.18138884 -167.04492188 336.33789062 C-179.15920641 329.8076553 -191.10045413 322.99836011 -202.93408203 315.97412109 C-206.73168074 313.72404172 -210.53946803 311.49128689 -214.34570312 309.25585938 C-215.72607351 308.44493724 -217.10629166 307.6337559 -218.48632812 306.82226562 C-219.06415039 306.48267822 -219.64197266 306.14309082 -220.23730469 305.79321289 C-221.65303716 304.9553418 -223.06327618 304.10818106 -224.47094727 303.25683594 C-227.18893875 301.63782213 -229.93648564 300.08667758 -232.70117188 298.54882812 C-234.3012207 297.65647461 -234.3012207 297.65647461 -235.93359375 296.74609375 C-238.1467773 295.51367959 -240.36031266 294.28189698 -242.57421875 293.05078125 C-248.31412144 289.84815687 -254.00410797 286.58764778 -259.62670898 283.18334961 C-264.15149452 280.45272901 -268.71875168 277.79446499 -273.28320312 275.13085938 C-274.32347656 274.52371094 -275.36375 273.9165625 -276.43554688 273.29101562 C-284.40246106 268.65327089 -292.41680129 264.10480423 -300.45239258 259.58740234 C-308.33487381 255.14692674 -316.14621159 250.59109433 -323.94604492 246.00732422 C-329.19095873 242.93565115 -334.45965324 239.91914991 -339.77929688 236.97851562 C-340.88740723 236.36548584 -341.99551758 235.75245605 -343.13720703 235.12084961 C-345.24130973 233.96137878 -347.34880529 232.80803267 -349.46044922 231.66235352 C-354.47084525 228.90217775 -359.34337967 225.99511825 -364.07617188 222.77929688 C-365.37977661 221.89443604 -365.37977661 221.89443604 -366.7097168 220.99169922 C-371.91994384 215.97286392 -373.30399219 211.20934992 -373.61328125 204.02124023 C-373.63957218 201.39784894 -373.64477078 198.78102562 -373.62695312 196.15820312 C-373.62965294 194.7515079 -373.63353942 193.3448145 -373.6385498 191.93812561 C-373.64442006 189.00210657 -373.63596171 186.06657701 -373.6171875 183.13061523 C-373.59437726 179.38250574 -373.60754834 175.63554089 -373.63147736 171.88747311 C-373.64598509 168.98677565 -373.64130721 166.0863462 -373.63096619 163.18564034 C-373.62831367 161.80425439 -373.63151632 160.42284346 -373.6408844 159.04148674 C-373.687419 150.25469112 -373.41673892 144.71881293 -367.58911133 137.94116211 C-362.24207917 133.49440884 -356.33325758 130.15444701 -350.28320312 126.75585938 C-348.54615454 125.7667238 -346.80911215 124.77757717 -345.07244873 123.7877655 C-343.27570791 122.76499424 -341.47716592 121.74545413 -339.67822266 120.7265625 C-334.01010777 117.51352389 -328.36515524 114.26023485 -322.72070312 111.00585938 C-321.6451416 110.38662598 -320.56958008 109.76739258 -319.46142578 109.12939453 C-311.87082813 104.74846925 -304.33348494 100.28562446 -296.85009766 95.72387695 C-291.98013629 92.76814793 -287.03194347 90.00337993 -282.02124023 87.29370117 C-276.74706505 84.40859574 -271.5495941 81.39033385 -266.34570312 78.38085938 C-265.20697754 77.7236792 -264.06825195 77.06649902 -262.89501953 76.3894043 C-255.62565896 72.18488226 -248.40111341 67.91835092 -241.24414062 63.52539062 C-238.91885806 62.17234159 -236.63351537 60.94559384 -234.22460938 59.76367188 C-229.90423915 57.6390772 -225.78747871 55.22736896 -221.65820312 52.75585938 C-216.58951936 49.73333551 -211.49309111 46.78495492 -206.32641602 43.93286133 C-202.70240173 41.9191675 -199.11828995 39.83783812 -195.53320312 37.75585938 C-194.32108154 37.05360229 -194.32108154 37.05360229 -193.08447266 36.3371582 C-188.51760227 33.68878847 -183.95789044 31.02855445 -179.40429688 28.35742188 C-168.16162583 21.76721259 -156.86697602 15.29160439 -145.47680664 8.95947266 C-138.05976964 4.82515807 -130.72503407 0.56454483 -123.40820312 -3.74414062 C-108.19593913 -12.65191542 -93.54673118 -21.15750968 -75.49804688 -22.13085938 C-73.08596111 -22.24768239 -73.08596111 -22.24768239 -70.74023438 -22.83789062 C-45.36473263 -27.3357639 -20.7747953 -12.13433612 0 0 Z M-101.28320312 123.63085938 C-102.50069474 124.34218637 -103.7187922 125.05247745 -104.9375 125.76171875 C-107.27641053 127.1236273 -109.61214129 128.49048748 -111.94628906 129.8605957 C-114.63426931 131.42483351 -117.33608173 132.95179987 -120.06054688 134.45117188 C-123.60358668 136.40165998 -127.04566159 138.47810191 -130.47070312 140.63085938 C-134.31619286 143.01603655 -138.16380828 145.31761392 -142.15820312 147.44335938 C-151.00379032 152.16980746 -159.52001917 157.49880107 -168.09570312 162.69335938 C-165.45328877 165.508856 -162.96572312 167.53918601 -159.58789062 169.40039062 C-158.69682617 169.89684082 -157.80576172 170.39329102 -156.88769531 170.90478516 C-155.92508789 171.43313965 -154.96248047 171.96149414 -153.97070312 172.50585938 C-151.88933588 173.66487049 -149.80863192 174.82507338 -147.72851562 175.98632812 C-146.6421582 176.59138184 -145.55580078 177.19643555 -144.43652344 177.81982422 C-138.87799907 180.93704988 -133.36210164 184.12735758 -127.84570312 187.31835938 C-126.75257813 187.94919434 -125.65945312 188.5800293 -124.53320312 189.22998047 C-119.60980792 192.07318217 -114.69224218 194.92537564 -109.79101562 197.80664062 C-85.46470848 213.03420007 -85.46470848 213.03420007 -57.72070312 214.81835938 C-48.76064748 212.39914435 -41.01500487 207.39156582 -33.09570312 202.69335938 C-31.40824571 201.69849547 -29.72074493 200.70370512 -28.03320312 199.70898438 C-25.34935274 198.1240825 -22.6671909 196.53652268 -19.98852539 194.94287109 C-12.26228029 190.35263927 -4.46928735 185.88686535 3.34179688 181.44335938 C12.93854707 175.98315613 22.48712533 170.45897461 31.90429688 164.69335938 C30.64757549 160.92319522 29.60867357 160.68624535 26.18164062 158.83007812 C25.18068359 158.28029297 24.17972656 157.73050781 23.1484375 157.1640625 C22.05724609 156.57560547 20.96605469 155.98714844 19.84179688 155.38085938 C17.53735427 154.11585625 15.23399422 152.84887935 12.93164062 151.58007812 C12.34305267 151.25675507 11.75446472 150.93343201 11.14804077 150.60031128 C5.33848048 147.4016505 -0.38186091 144.05904073 -6.09570312 140.69335938 C-15.45380487 135.1964335 -24.88546009 129.84442018 -34.37304688 124.57421875 C-35.33855469 124.03732422 -36.3040625 123.50042969 -37.29882812 122.94726562 C-38.24435547 122.42148926 -39.18988281 121.89571289 -40.1640625 121.35400391 C-44.31508216 119.00263518 -48.4063101 116.55250192 -52.49316406 114.09155273 C-57.11663542 111.60762962 -61.41776785 111.45497104 -66.59570312 111.38085938 C-67.90539062 111.34347656 -69.21507812 111.30609375 -70.56445312 111.26757812 C-81.94782386 111.85018652 -91.73500456 117.97442891 -101.28320312 123.63085938 Z " fill="#F7F5EE" transform="translate(381.095703125,31.306640625)"/>
<path d="M0 0 C3.69813356 1.3972311 7.09595998 3.06564695 10.55078125 4.984375 C11.6291626 5.5825 12.70754395 6.180625 13.81860352 6.796875 C14.98338501 7.44764945 16.14801323 8.09869832 17.3125 8.75 C17.9092453 9.08257812 18.5059906 9.41515625 19.12081909 9.7578125 C29.48066714 15.53278074 39.74456663 21.46342069 49.97265625 27.46875 C56.29523032 31.18047899 62.64591143 34.84255683 69 38.5 C77.41388412 43.34458507 85.80867416 48.22005502 94.1875 53.125 C101.92165348 57.65008718 109.69015653 62.10687979 117.5 66.5 C126.31646177 71.45935373 135.07161596 76.51532871 143.80200195 81.62451172 C159.98502295 91.09373229 176.24186037 100.43498859 192.52685547 109.72753906 C203.35022446 115.90697837 214.13732933 122.1486227 224.890625 128.44921875 C236.18187618 135.06194817 247.49893859 141.60609944 258.98022461 147.88427734 C260.42212791 148.68078382 261.85713899 149.48981985 263.28735352 150.30712891 C267.46406289 152.68272778 271.47188827 154.75978766 276.0625 156.25 C277.00222656 156.56453125 277.94195312 156.8790625 278.91015625 157.203125 C286.50967631 159.16305179 294.0729415 159.1826298 301.875 159.1875 C303.41220703 159.20586914 303.41220703 159.20586914 304.98046875 159.22460938 C321.36901277 159.25584548 334.86645976 153.61244916 348.9375 145.5 C350.01523682 144.88761475 351.09297363 144.27522949 352.20336914 143.64428711 C360.05936284 139.16329885 367.8580537 134.58538775 375.62988281 129.96020508 C382.61269029 125.8048725 389.64146534 121.73456122 396.6875 117.6875 C405.62664669 112.55025742 414.51674456 107.337923 423.375 102.0625 C440.0836055 92.12137013 456.97853288 82.51650565 473.91625977 72.97192383 C483.59500205 67.51757272 493.221627 61.98309819 502.80957031 56.37060547 C510.18964137 52.05105823 517.58952358 47.76715571 525 43.5 C534.32989551 38.12607993 543.63886206 32.71771997 552.93457031 27.28491211 C561.57868221 22.23680216 570.24677144 17.23092285 578.921875 12.23632812 C580.4378125 11.36331055 580.4378125 11.36331055 581.984375 10.47265625 C582.96857422 9.90691895 583.95277344 9.34118164 584.96679688 8.75830078 C587.10529353 7.51864746 589.23613976 6.26575022 591.36132812 5.00341797 C592.44349609 4.36162598 593.52566406 3.71983398 594.640625 3.05859375 C596.11063965 2.17965454 596.11063965 2.17965454 597.61035156 1.28295898 C600 0 600 0 602 0 C602.15263112 6.28019934 602.25741479 12.55991737 602.32958984 18.84155273 C602.35968916 20.97650018 602.40057913 23.11132471 602.45263672 25.24584961 C602.52575323 28.32176079 602.55952521 31.39603203 602.5859375 34.47265625 C602.61690521 35.42084732 602.64787292 36.36903839 602.67977905 37.34596252 C602.68270845 43.16619474 601.80757323 46.43089218 597.64627075 50.59715271 C595.42386729 52.49094367 593.19369212 54.01759268 590.640625 55.4375 C589.62049316 56.01459717 588.60036133 56.59169434 587.54931641 57.1862793 C585.91615479 58.08407104 585.91615479 58.08407104 584.25 59 C582.5061161 59.98221153 580.76224348 60.96444378 579.01907349 61.94792175 C577.21457643 62.96377891 575.40691851 63.97381496 573.59863281 64.98291016 C567.90973795 68.16357706 562.26872068 71.42757242 556.625 74.6875 C555.54951904 75.30681396 554.47403809 75.92612793 553.3659668 76.56420898 C545.77494934 80.94446481 538.23780214 85.40772253 530.75439453 89.96948242 C525.87438781 92.93130828 520.91574694 95.7018174 515.89477539 98.41723633 C510.77768378 101.21508612 505.73536588 104.14214582 500.6875 107.0625 C498.9869043 108.04476562 498.9869043 108.04476562 497.25195312 109.046875 C489.2443365 113.67737549 481.27420189 118.36949358 473.31982422 123.09082031 C466.34943826 127.22114075 459.33733537 131.27560603 452.3125 135.3125 C443.37347977 140.44995173 434.48303344 145.66170268 425.625 150.9375 C415.73998352 156.8238651 405.78911338 162.57735821 395.78573608 168.25918579 C387.27518543 173.09505133 378.84620757 178.04510104 370.47460938 183.1171875 C365.570484 186.08189805 360.61786061 188.89879843 355.55078125 191.578125 C352.5311176 193.26136783 349.65731942 195.12975341 346.75 197 C328.4185981 208.30580565 306.26433028 213.36203902 284.97998047 208.66357422 C274.39132798 206.03084725 265.36837357 201.47456551 256 196 C254.3915099 195.08308134 252.7821076 194.16776137 251.171875 193.25390625 C243.09631441 188.64696224 235.10928909 183.91709324 227.25 178.94921875 C223.5717875 176.74317544 219.81816735 174.70929342 216.04736328 172.66674805 C210.63513004 169.70654004 205.28960212 166.62968945 199.9375 163.5625 C198.71225074 162.86098312 197.48699009 162.15948613 196.26171875 161.45800781 C193.12026491 159.65879619 189.97993748 157.85762828 186.84002686 156.0557251 C185.05787688 155.03320716 183.27532718 154.01138954 181.49267578 152.98974609 C169.50968465 146.11844081 157.54934095 139.22029941 145.75390625 132.03027344 C140.86574523 129.06338345 135.89705548 126.29299479 130.86743164 123.57348633 C125.91644333 120.85666047 121.05648496 117.98538618 116.1875 115.125 C114.06277139 113.88104675 111.93777316 112.63755392 109.8125 111.39453125 C108.80445312 110.80494629 107.79640625 110.21536133 106.7578125 109.60791016 C102.3361044 107.02988523 97.88966338 104.49676387 93.44140625 101.96484375 C89.32749393 99.61603796 85.22491944 97.24812586 81.125 94.875 C80.33005127 94.41496582 79.53510254 93.95493164 78.71606445 93.48095703 C74.24641893 90.89106897 69.7838478 88.28955356 65.328125 85.67578125 C54.98476841 79.61275906 44.60510461 73.63647015 34.125 67.8125 C26.59114132 63.6117463 19.08473587 59.3753833 11.6875 54.9375 C10.95869629 54.50864502 10.22989258 54.07979004 9.47900391 53.63793945 C8.47426025 53.02631958 8.47426025 53.02631958 7.44921875 52.40234375 C6.87518311 52.05679443 6.30114746 51.71124512 5.7097168 51.35522461 C2.62899602 48.91325959 0.29431476 46.86849214 -0.34407043 42.81562805 C-0.46333008 40.09065024 -0.44936036 37.39493691 -0.390625 34.66796875 C-0.38496521 33.67622147 -0.37930542 32.68447418 -0.37347412 31.66267395 C-0.35113344 28.50378586 -0.30094038 25.34604364 -0.25 22.1875 C-0.22993206 20.04233412 -0.2116818 17.89715041 -0.1953125 15.75195312 C-0.15127645 10.50091297 -0.0843875 5.25053836 0 0 Z " fill="#F6F4EE" transform="translate(15,197)"/>
<path d="M0 0 C4.09846791 2.38962453 8.21070725 4.75512603 12.32202148 7.12255859 C18.93310426 10.93036062 25.53831649 14.74834524 32.14404297 18.56542969 C44.96722702 25.97490071 57.80411455 33.3593744 70.66720581 40.6993103 C80.32185314 46.20895864 89.95567586 51.75406049 99.58105469 57.31469727 C110.27960895 63.49307127 121.00576463 69.62268737 131.73974609 75.73925781 C149.45364711 85.83321258 167.10161614 96.04156164 184.69799805 106.33886719 C190.17366972 109.53679997 195.66403144 112.70705332 201.17382812 115.84570312 C201.79169189 116.19779343 202.40955566 116.54988373 203.04614258 116.91264343 C206.03769896 118.61650249 209.03103251 120.31707226 212.02685547 122.01342773 C217.71293827 125.24538952 223.37132522 128.52045307 228.97070312 131.90039062 C230.00783447 132.52405518 231.04496582 133.14771973 232.11352539 133.7902832 C236.96674767 137.09978086 241.02807872 141.0647049 242.90429688 146.69335938 C243.01333096 148.72082809 243.06323016 150.75166438 243.08129883 152.78198242 C243.09413406 154.03726242 243.1069693 155.29254242 243.12019348 156.58586121 C243.12836317 157.95892948 243.13580646 159.33200224 243.14257812 160.70507812 C243.14665365 161.39842569 243.15072918 162.09177326 243.15492821 162.80613136 C243.17577616 166.47874273 243.1900812 170.15131691 243.19946289 173.82397461 C243.21050195 177.60226821 243.24487554 181.37996875 243.28463459 185.1580534 C243.3108884 188.07588227 243.3191626 190.99357198 243.32274437 193.91150856 C243.32759077 195.30327149 243.33914887 196.69502902 243.35778236 198.08667564 C243.47057045 207.07147622 243.37744349 213.86254624 237.01733398 220.73120117 C230.45952066 225.50850526 223.5431171 229.54945486 216.46679688 233.50585938 C215.21857973 234.21083645 213.97069865 234.91640887 212.72314453 235.62255859 C205.0945182 239.93351743 197.44748754 244.21433387 189.76196289 248.4230957 C185.26670552 250.89301108 180.86226055 253.4940134 176.47119141 256.14453125 C160.75468066 265.6276532 144.84991955 274.7917726 128.93994141 283.94482422 C123.73199273 286.94460936 118.53354664 289.96076723 113.3347168 292.97631836 C109.32679904 295.29876552 105.30968157 297.60343365 101.2800293 299.88793945 C96.40758414 302.65132454 91.59504472 305.47942634 86.84179688 308.44335938 C80.57102164 312.33530511 74.1789831 315.9886866 67.76074219 319.63110352 C59.82827961 324.14249965 51.95709631 328.75385632 44.09179688 333.38085938 C35.87498886 338.21340748 27.6479543 343.01761333 19.31762695 347.65283203 C13.86744724 350.69165726 8.49446426 353.85544174 3.12280273 357.03051758 C-2.45818793 360.32694478 -8.0665683 363.56866207 -13.71289062 366.75195312 C-15.99092091 368.05932155 -18.24631722 369.4068464 -20.47851562 370.79101562 C-39.9761445 382.82865786 -62.59176593 385.08731217 -85.07714844 380.65966797 C-106.86623677 375.29386617 -127.04450385 360.0254504 -146.01757812 348.52880859 C-152.95657369 344.32551203 -159.89792107 340.18138884 -167.04492188 336.33789062 C-179.15920641 329.8076553 -191.10045413 322.99836011 -202.93408203 315.97412109 C-206.73168074 313.72404172 -210.53946803 311.49128689 -214.34570312 309.25585938 C-215.72607351 308.44493724 -217.10629166 307.6337559 -218.48632812 306.82226562 C-219.06415039 306.48267822 -219.64197266 306.14309082 -220.23730469 305.79321289 C-221.65303716 304.9553418 -223.06327618 304.10818106 -224.47094727 303.25683594 C-227.18893875 301.63782213 -229.93648564 300.08667758 -232.70117188 298.54882812 C-234.3012207 297.65647461 -234.3012207 297.65647461 -235.93359375 296.74609375 C-238.1467773 295.51367959 -240.36031266 294.28189698 -242.57421875 293.05078125 C-248.31412144 289.84815687 -254.00410797 286.58764778 -259.62670898 283.18334961 C-264.15149452 280.45272901 -268.71875168 277.79446499 -273.28320312 275.13085938 C-274.32347656 274.52371094 -275.36375 273.9165625 -276.43554688 273.29101562 C-284.40246106 268.65327089 -292.41680129 264.10480423 -300.45239258 259.58740234 C-308.33487381 255.14692674 -316.14621159 250.59109433 -323.94604492 246.00732422 C-329.19095873 242.93565115 -334.45965324 239.91914991 -339.77929688 236.97851562 C-340.88740723 236.36548584 -341.99551758 235.75245605 -343.13720703 235.12084961 C-345.24130973 233.96137878 -347.34880529 232.80803267 -349.46044922 231.66235352 C-354.47084525 228.90217775 -359.34337967 225.99511825 -364.07617188 222.77929688 C-365.37977661 221.89443604 -365.37977661 221.89443604 -366.7097168 220.99169922 C-371.91994384 215.97286392 -373.30399219 211.20934992 -373.61328125 204.02124023 C-373.63957218 201.39784894 -373.64477078 198.78102562 -373.62695312 196.15820312 C-373.62965294 194.7515079 -373.63353942 193.3448145 -373.6385498 191.93812561 C-373.64442006 189.00210657 -373.63596171 186.06657701 -373.6171875 183.13061523 C-373.59437726 179.38250574 -373.60754834 175.63554089 -373.63147736 171.88747311 C-373.64598509 168.98677565 -373.64130721 166.0863462 -373.63096619 163.18564034 C-373.62831367 161.80425439 -373.63151632 160.42284346 -373.6408844 159.04148674 C-373.687419 150.25469112 -373.41673892 144.71881293 -367.58911133 137.94116211 C-362.24207917 133.49440884 -356.33325758 130.15444701 -350.28320312 126.75585938 C-348.54615454 125.7667238 -346.80911215 124.77757717 -345.07244873 123.7877655 C-343.27570791 122.76499424 -341.47716592 121.74545413 -339.67822266 120.7265625 C-334.01010777 117.51352389 -328.36515524 114.26023485 -322.72070312 111.00585938 C-321.6451416 110.38662598 -320.56958008 109.76739258 -319.46142578 109.12939453 C-311.87082813 104.74846925 -304.33348494 100.28562446 -296.85009766 95.72387695 C-291.98013629 92.76814793 -287.03194347 90.00337993 -282.02124023 87.29370117 C-276.74706505 84.40859574 -271.5495941 81.39033385 -266.34570312 78.38085938 C-265.20697754 77.7236792 -264.06825195 77.06649902 -262.89501953 76.3894043 C-255.62565896 72.18488226 -248.40111341 67.91835092 -241.24414062 63.52539062 C-238.91885806 62.17234159 -236.63351537 60.94559384 -234.22460938 59.76367188 C-229.90423915 57.6390772 -225.78747871 55.22736896 -221.65820312 52.75585938 C-216.58951936 49.73333551 -211.49309111 46.78495492 -206.32641602 43.93286133 C-202.70240173 41.9191675 -199.11828995 39.83783812 -195.53320312 37.75585938 C-194.32108154 37.05360229 -194.32108154 37.05360229 -193.08447266 36.3371582 C-188.51760227 33.68878847 -183.95789044 31.02855445 -179.40429688 28.35742188 C-168.16162583 21.76721259 -156.86697602 15.29160439 -145.47680664 8.95947266 C-138.05976964 4.82515807 -130.72503407 0.56454483 -123.40820312 -3.74414062 C-108.19593913 -12.65191542 -93.54673118 -21.15750968 -75.49804688 -22.13085938 C-73.08596111 -22.24768239 -73.08596111 -22.24768239 -70.74023438 -22.83789062 C-45.36473263 -27.3357639 -20.7747953 -12.13433612 0 0 Z M-112.09570312 -2.30664062 C-112.81419434 -1.89945801 -113.53268555 -1.49227539 -114.27294922 -1.07275391 C-118.55421054 1.35666713 -122.82721302 3.80016902 -127.09570312 6.25195312 C-131.38126547 8.71327526 -135.67384624 11.16198154 -139.97070312 13.60351562 C-151.53778816 20.18077476 -163.08409197 26.77668046 -174.44165039 33.71289062 C-179.29964973 36.66875595 -184.23457398 39.43920404 -189.23657227 42.14404297 C-203.76270122 50.01551546 -218.10200859 58.22707078 -232.35424805 66.58203125 C-238.74483777 70.3275701 -245.15767775 74.0299979 -251.59570312 77.69335938 C-258.9781875 81.89577179 -266.32684501 86.15240457 -273.65820312 90.44335938 C-282.39975037 95.55761145 -291.1730964 100.61380936 -299.97070312 105.63085938 C-312.32570102 112.6783133 -324.66754876 119.74750201 -336.97070312 126.88525391 C-340.1322246 128.71449047 -343.30127426 130.53020977 -346.47070312 132.34570312 C-348.47104529 133.50266381 -350.4710605 134.66019005 -352.47070312 135.81835938 C-353.84427979 136.598927 -353.84427979 136.598927 -355.24560547 137.39526367 C-362.64209941 141.65552924 -362.64209941 141.65552924 -366.76757812 148.90429688 C-366.88847457 152.25312834 -366.84496784 154.76641263 -364.68115234 157.44335938 C-359.03142055 162.26075815 -352.99812537 165.8117592 -346.47070312 169.31835938 C-344.22602143 170.54926083 -341.9825528 171.78237677 -339.74023438 173.01757812 C-338.62084473 173.63294434 -337.50145508 174.24831055 -336.34814453 174.88232422 C-331.56591109 177.54518322 -326.85843759 180.32648141 -322.15820312 183.13085938 C-310.977687 189.78597684 -299.71088316 196.28605001 -288.43212891 202.77294922 C-285.08781044 204.69790232 -281.74566965 206.62657938 -278.40429688 208.55664062 C-268.47970173 214.28932724 -258.55102776 220.01417303 -248.59570312 225.69335938 C-237.51683616 232.01348979 -226.47114421 238.39072175 -215.42626953 244.77001953 C-209.98379421 247.9129473 -204.53969891 251.05306623 -199.09570312 254.19335938 C-192.53627572 257.97707372 -185.97723726 261.76145446 -179.41992188 265.54882812 C-169.48961075 271.28323314 -159.55601871 277.01119724 -149.59570312 282.69335938 C-141.66836916 287.21657125 -133.75331978 291.7607619 -125.84570312 296.31835938 C-124.18945923 297.27125854 -124.18945923 297.27125854 -122.49975586 298.2434082 C-117.66008316 301.03337121 -112.83171183 303.83559485 -108.05273438 306.72851562 C-100.63429263 311.21672892 -93.55030954 315.43178503 -85.09570312 317.69335938 C-84.27714844 317.91507812 -83.45859375 318.13679688 -82.61523438 318.36523438 C-54.40645544 324.6812696 -32.07551437 313.7032465 -8.44628906 299.66699219 C-3.28476978 296.62664521 1.92057998 293.66434021 7.12792969 290.70352173 C17.44493676 284.83657472 27.72285389 278.9059058 37.96679688 272.91210938 C45.26329856 268.64452682 52.57932508 264.41186982 59.90429688 260.19335938 C68.25232136 255.38491214 76.58677991 250.55438842 84.90429688 245.69335938 C94.31420018 240.19390401 103.7490025 234.73886742 113.19335938 229.29882812 C121.42632713 224.55357344 129.638019 219.77283386 137.84106445 214.97607422 C145.40551796 210.55666011 152.99644237 206.18439834 160.59179688 201.81835938 C168.22173856 197.43124045 175.78451515 192.97916045 183.24804688 188.31445312 C186.78712983 186.15457161 190.41679065 184.19031831 194.06835938 182.22851562 C198.98789284 179.56546239 203.83783554 176.78265621 208.67871094 173.97998047 C210.32741308 173.02685845 211.97811475 172.07719337 213.62988281 171.12939453 C216.62239513 169.40956555 219.60758429 167.67754352 222.59179688 165.94335938 C223.56093018 165.3883374 224.53006348 164.83331543 225.52856445 164.26147461 C226.44017334 163.72852783 227.35178223 163.19558105 228.29101562 162.64648438 C229.10787842 162.1737207 229.92474121 161.70095703 230.76635742 161.21386719 C233.70700946 159.1224682 235.6072308 157.07719217 236.37304688 153.50976562 C236.42889851 149.48146628 236.37764685 147.34994159 233.96679688 144.00585938 C226.48524838 138.35652684 218.54654089 133.70622676 210.34179688 129.19335938 C201.80332263 124.4570561 193.32214967 119.64085298 184.90429688 114.69335938 C175.68021684 109.27840133 166.38414112 104.00704628 157.04223633 98.79833984 C147.92323428 93.71286565 138.8538536 88.54465487 129.79638672 83.35058594 C124.77333434 80.47227431 119.74585971 77.6017012 114.71893311 74.73016357 C112.91283742 73.69823907 111.10701092 72.66584511 109.30126953 71.63330078 C103.84070497 68.51120484 98.37832682 65.39244381 92.90820312 62.28710938 C84.54069904 57.53234462 76.21101897 52.76632209 68.08398438 47.60742188 C64.38860202 45.38292881 60.61405027 43.33553966 56.82177734 41.28173828 C52.1948274 38.76266411 47.61265658 36.16566317 43.02929688 33.56835938 C41.53837524 32.72422485 41.53837524 32.72422485 40.01733398 31.86303711 C36.97874774 30.14140456 33.94126098 28.41785157 30.90429688 26.69335938 C30.0082373 26.18466309 29.11217773 25.6759668 28.18896484 25.15185547 C19.09515915 19.98441604 10.02782171 14.77647447 1.00976562 9.4777832 C-3.02270595 7.11310615 -7.06530411 4.76620525 -11.11132812 2.42480469 C-13.0861516 1.27907104 -15.05757637 0.12745728 -17.02539062 -1.03027344 C-48.36110403 -19.4049753 -80.04278832 -20.53748065 -112.09570312 -2.30664062 Z M-366.09570312 165.69335938 C-366.22275393 171.99196776 -366.31015873 178.29024427 -366.37036133 184.58984375 C-366.39546475 186.73157093 -366.4295548 188.87321278 -366.47290039 191.01464844 C-366.53373463 194.09787068 -366.56195493 197.1799578 -366.58398438 200.26367188 C-366.6097908 201.21702423 -366.63559723 202.17037659 -366.66218567 203.15261841 C-366.66398351 207.4393845 -366.62358101 210.65866196 -363.92138672 214.12280273 C-361.1726924 216.62332136 -358.64169494 218.45497872 -355.39648438 220.25195312 C-353.72513428 221.19071289 -353.72513428 221.19071289 -352.02001953 222.1484375 C-350.81613157 222.80933741 -349.61219149 223.47014238 -348.40820312 224.13085938 C-347.15924734 224.82809217 -345.91104833 225.52668218 -344.66357422 226.2265625 C-342.0891362 227.67017837 -339.51197823 229.10875705 -336.93310547 230.54443359 C-330.99102665 233.86153983 -325.10833323 237.28079772 -319.22070312 240.69335938 C-317.06600178 241.9385778 -314.91106433 243.18338779 -312.75585938 244.42773438 C-311.77246582 244.99556641 -310.78907227 245.56339844 -309.77587891 246.1484375 C-306.40858584 248.08943135 -303.0346926 250.01840825 -299.65820312 251.94335938 C-286.05250768 259.70376828 -272.5269608 267.60311097 -259.00048828 275.50048828 C-252.11253238 279.52075159 -245.21525423 283.52443888 -238.30957031 287.51416016 C-233.99704355 290.00759461 -229.69140895 292.51231276 -225.39257812 295.02929688 C-215.49885796 300.82105744 -205.58794456 306.57293796 -195.59570312 312.19335938 C-179.78799895 321.08757365 -164.09197576 330.18394827 -148.60742188 339.63085938 C-145.79368528 341.31398697 -142.92756556 342.88530798 -140.04492188 344.44726562 C-132.76947365 348.39115169 -125.60640212 352.53006932 -118.43505859 356.65893555 C-114.33121382 359.02030606 -110.21762425 361.36369748 -106.09570312 363.69335938 C-104.95689697 364.34006592 -103.81809082 364.98677246 -102.64477539 365.65307617 C-96.48509061 369.07432519 -90.64016818 371.95982165 -83.78320312 373.63085938 C-82.97834473 373.83195313 -82.17348633 374.03304687 -81.34423828 374.24023438 C-54.47085135 380.46499369 -31.20646182 370.20354035 -8.85253906 356.38037109 C-4.03797252 353.43415654 0.83878987 350.59539034 5.71679688 347.75585938 C6.72629395 347.16724121 7.73579102 346.57862305 8.77587891 345.97216797 C15.55721609 342.02907798 22.37699905 338.15892247 29.21679688 334.31835938 C38.77894246 328.94746738 48.22039698 323.38860118 57.64355469 317.77807617 C68.58007381 311.27294748 79.59711037 304.91261331 90.63085938 298.57421875 C105.44384436 290.06293919 120.24783744 281.53819218 134.95507812 272.84521484 C153.27960834 262.01666605 171.63893961 251.24669126 190.13040161 240.70535278 C191.89821338 239.69682996 193.66498533 238.68651084 195.43139648 237.67553711 C196.60204067 237.00567894 197.77269493 236.33583839 198.94335938 235.66601562 C199.51991776 235.33607101 200.09647614 235.0061264 200.69050598 234.66618347 C204.71786289 232.3641866 208.75876021 230.08709499 212.80273438 227.81445312 C214.96184882 226.58704627 217.12071457 225.35920183 219.27929688 224.13085938 C220.26542969 223.58365234 221.2515625 223.03644531 222.26757812 222.47265625 C223.18667969 221.94607422 224.10578125 221.41949219 225.05273438 220.87695312 C225.84856934 220.42892334 226.6444043 219.98089355 227.46435547 219.51928711 C231.53092973 216.47607029 235.29094449 213.49132515 236.42166138 208.33326721 C236.59677008 205.59050107 236.57994509 202.91284106 236.49023438 200.16601562 C236.48174469 199.17709824 236.473255 198.18818085 236.46450806 197.16929626 C236.43109038 194.03034594 236.35583162 190.89402477 236.27929688 187.75585938 C236.24918229 185.61982893 236.22180911 183.48375797 236.19726562 181.34765625 C236.13133832 176.12866986 236.03110897 170.91120248 235.90429688 165.69335938 C231.9322671 166.91563339 228.48441808 168.34097046 224.91210938 170.45898438 C223.97254395 171.01191162 223.03297852 171.56483887 222.06494141 172.13452148 C221.06317871 172.73143799 220.06141602 173.32835449 219.02929688 173.94335938 C216.8627034 175.22082727 214.69603467 176.49816754 212.52929688 177.77539062 C211.42585937 178.42846191 210.32242188 179.0815332 209.18554688 179.75439453 C204.14497688 182.73298136 199.08758886 185.68250165 194.02929688 188.63085938 C193.04590332 189.20481445 192.06250977 189.77876953 191.04931641 190.37011719 C182.58814607 195.3049998 174.10341267 200.19856061 165.61572266 205.08764648 C158.36507575 209.26663604 151.12967949 213.47085698 143.90429688 217.69335938 C127.42327529 227.32032132 110.91171353 236.89244598 94.27929688 246.25585938 C83.42386297 252.36893662 72.66050302 258.63350835 61.91162109 264.93164062 C56.95359928 267.83609633 51.99188543 270.73421491 47.02929688 273.63085938 C46.05468506 274.1998999 45.08007324 274.76894043 44.07592773 275.35522461 C38.7138926 278.48260319 33.34490822 281.59761665 27.96679688 284.69726562 C27.38614471 285.03193344 26.80549255 285.36660126 26.20724487 285.71141052 C23.40816268 287.32416897 20.6081687 288.93532141 17.80712891 290.54467773 C12.34227254 293.68915591 6.90839929 296.87606428 1.50830078 300.13037109 C-3.62756501 303.21304621 -8.79607514 306.23883943 -13.97070312 309.25585938 C-15.06511719 309.90232422 -16.15953125 310.54878906 -17.28710938 311.21484375 C-38.19261368 323.37467259 -61.15651337 328.66908202 -85.27148438 323.56445312 C-96.45962247 320.11361662 -106.44732527 314.52927487 -116.41210938 308.49804688 C-121.74068247 305.27901266 -127.16710305 302.23962737 -132.59570312 299.19335938 C-140.03110311 295.01030097 -147.42370713 290.76829624 -154.76391602 286.4206543 C-160.15807155 283.23090564 -165.58846251 280.10838624 -171.03320312 277.00585938 C-182.30144531 270.58469875 -193.53447103 264.10330616 -204.76513672 257.61669922 C-210.20761204 254.47377145 -215.65170734 251.33365252 -221.09570312 248.19335938 C-227.65513053 244.40964503 -234.21416899 240.62526429 -240.77148438 236.83789062 C-250.70179552 231.10348559 -260.63539027 225.37552631 -270.59570312 219.69335938 C-287.74314825 209.90920949 -304.83243492 200.02597337 -321.87353516 190.05786133 C-331.18696426 184.62027882 -340.54976367 179.27027513 -349.92138672 173.93383789 C-351.04496582 173.29373779 -352.16854492 172.6536377 -353.32617188 171.99414062 C-354.32028076 171.42864502 -355.31438965 170.86314941 -356.33862305 170.28051758 C-358.18876181 169.21545496 -360.01996641 168.11685995 -361.83129883 166.98706055 C-363.95047944 165.52800325 -363.95047944 165.52800325 -366.09570312 165.69335938 Z " fill="#131312" transform="translate(381.095703125,31.306640625)"/>
<path d="M0 0 C0.84304688 0.29519531 1.68609375 0.59039062 2.5546875 0.89453125 C10.26852362 3.852547 17.15385377 7.8978516 24.203125 12.140625 C29.43156687 15.28118449 34.74363089 18.26598081 40.0625 21.25 C49.05071179 26.30367602 57.96708539 31.46959037 66.85961914 36.68945312 C74.18577274 40.97607665 81.57889253 45.13040443 89 49.25 C96.15722152 53.23581103 103.27931928 57.25688578 110.25 61.5625 C110.87519531 61.94374023 111.50039063 62.32498047 112.14453125 62.71777344 C115.9159327 65.09071898 119.08969213 67.61804002 122 71 C122.69119224 74.89581078 123.01368724 77.27403873 120.99829102 80.70556641 C116.54316814 86.06060981 111.29388104 89.14904405 105.25 92.5 C104.20666504 93.09312988 103.16333008 93.68625977 102.08837891 94.29736328 C99.871312 95.55771225 97.65134165 96.8129655 95.42871094 98.06347656 C90.84496191 100.6523613 86.29040938 103.29043463 81.73510742 105.92895508 C73.984918 110.41756656 66.22075071 114.88148556 58.4375 119.3125 C53.64397569 122.04580385 48.87867215 124.82325157 44.125 127.625 C36.89999151 131.88211152 29.67311939 136.13593912 22.4375 140.375 C21.4263916 140.97006348 20.4152832 141.56512695 19.37353516 142.17822266 C4.78812559 150.71241928 -9.59812493 157.14848494 -26.8125 152.75 C-39.78004675 148.42748442 -51.69469656 140.61822657 -63.34008789 133.58544922 C-67.97009327 130.82571953 -72.66157629 128.17360317 -77.3475647 125.51040649 C-88.01897008 119.44410564 -98.64773474 113.31018682 -109.23486328 107.09765625 C-114.23953631 104.16825542 -119.26234164 101.27880573 -124.32421875 98.44921875 C-125.35957764 97.87002686 -126.39493652 97.29083496 -127.46166992 96.6940918 C-129.41851644 95.60300638 -131.37811585 94.51683631 -133.34106445 93.43676758 C-148.03905056 85.24543146 -148.03905056 85.24543146 -152 79 C-152.86675404 72.17431193 -152.86675404 72.17431193 -150.0625 68.375 C-142.76171408 62.71316602 -134.87646408 58.10497221 -126.84240723 53.56781006 C-124.37796927 52.17586994 -121.91792948 50.77623384 -119.45755005 49.37713623 C-118.18372882 48.65285568 -116.90970036 47.92893948 -115.63546753 47.2053833 C-109.32526238 43.62134112 -103.03493601 40.00316115 -96.75 36.375 C-95.68507324 35.76043945 -94.62014648 35.14587891 -93.52294922 34.51269531 C-87.24331827 30.88471909 -80.97411969 27.23929644 -74.71264648 23.58007812 C-70.77156044 21.27732104 -66.82718647 18.98022488 -62.8828125 16.68310547 C-60.95113941 15.55531462 -59.02146608 14.42409202 -57.09375 13.28955078 C-54.29630238 11.64329466 -51.49254724 10.00826423 -48.6875 8.375 C-47.87047607 7.8900708 -47.05345215 7.4051416 -46.21166992 6.90551758 C-32.42912557 -1.07310842 -15.54581547 -5.58585385 0 0 Z M-48.1875 54.9375 C-49.40499162 55.64882699 -50.62308907 56.35911808 -51.84179688 57.06835938 C-54.18070741 58.43026793 -56.51643816 59.79712811 -58.85058594 61.16723633 C-61.53856619 62.73147414 -64.24037861 64.2584405 -66.96484375 65.7578125 C-70.50788355 67.7083006 -73.94995847 69.78474253 -77.375 71.9375 C-81.22048973 74.32267718 -85.06810515 76.62425455 -89.0625 78.75 C-97.9080872 83.47644809 -106.42431604 88.8054417 -115 94 C-112.35758565 96.81549662 -109.87002 98.84582663 -106.4921875 100.70703125 C-105.60112305 101.20348145 -104.71005859 101.69993164 -103.79199219 102.21142578 C-102.82938477 102.73978027 -101.86677734 103.26813477 -100.875 103.8125 C-98.79363275 104.97151111 -96.7129288 106.13171401 -94.6328125 107.29296875 C-93.54645508 107.89802246 -92.46009766 108.50307617 -91.34082031 109.12646484 C-85.78229595 112.24369051 -80.26639851 115.4339982 -74.75 118.625 C-73.656875 119.25583496 -72.56375 119.88666992 -71.4375 120.53662109 C-66.51410479 123.37982279 -61.59653906 126.23201627 -56.6953125 129.11328125 C-32.36900536 144.34084069 -32.36900536 144.34084069 -4.625 146.125 C4.33505564 143.70578498 12.08069826 138.69820644 20 134 C21.68745741 133.00513609 23.37495819 132.01034574 25.0625 131.015625 C27.74635038 129.43072312 30.42851223 127.84316331 33.10717773 126.24951172 C40.83342284 121.6592799 48.62641577 117.19350597 56.4375 112.75 C66.0342502 107.28979675 75.58282846 101.76561523 85 96 C83.74327861 92.22983584 82.70437669 91.99288597 79.27734375 90.13671875 C78.27638672 89.58693359 77.27542969 89.03714844 76.24414062 88.47070312 C75.15294922 87.88224609 74.06175781 87.29378906 72.9375 86.6875 C70.6330574 85.42249688 68.32969734 84.15551998 66.02734375 82.88671875 C65.4387558 82.56339569 64.85016785 82.24007263 64.2437439 81.9069519 C58.4341836 78.70829112 52.71384222 75.36568135 47 72 C37.64189826 66.50307413 28.21024304 61.15106081 18.72265625 55.88085938 C17.75714844 55.34396484 16.79164063 54.80707031 15.796875 54.25390625 C14.85134766 53.72812988 13.90582031 53.20235352 12.93164062 52.66064453 C8.78062097 50.3092758 4.68939302 47.85914255 0.60253906 45.39819336 C-4.02093229 42.91427024 -8.32206473 42.76161167 -13.5 42.6875 C-14.8096875 42.65011719 -16.119375 42.61273438 -17.46875 42.57421875 C-28.85212074 43.15682715 -38.63930143 49.28106954 -48.1875 54.9375 Z " fill="#F5F3ED" transform="translate(328,100)"/>
<path d="M0 0 C0.84304688 0.29519531 1.68609375 0.59039062 2.5546875 0.89453125 C10.26852362 3.852547 17.15385377 7.8978516 24.203125 12.140625 C29.43156687 15.28118449 34.74363089 18.26598081 40.0625 21.25 C49.05071179 26.30367602 57.96708539 31.46959037 66.85961914 36.68945312 C74.18577274 40.97607665 81.57889253 45.13040443 89 49.25 C96.15722152 53.23581103 103.27931928 57.25688578 110.25 61.5625 C110.87519531 61.94374023 111.50039063 62.32498047 112.14453125 62.71777344 C115.9159327 65.09071898 119.08969213 67.61804002 122 71 C122.69119224 74.89581078 123.01368724 77.27403873 120.99829102 80.70556641 C116.54316814 86.06060981 111.29388104 89.14904405 105.25 92.5 C104.20666504 93.09312988 103.16333008 93.68625977 102.08837891 94.29736328 C99.871312 95.55771225 97.65134165 96.8129655 95.42871094 98.06347656 C90.84496191 100.6523613 86.29040938 103.29043463 81.73510742 105.92895508 C73.984918 110.41756656 66.22075071 114.88148556 58.4375 119.3125 C53.64397569 122.04580385 48.87867215 124.82325157 44.125 127.625 C36.89999151 131.88211152 29.67311939 136.13593912 22.4375 140.375 C21.4263916 140.97006348 20.4152832 141.56512695 19.37353516 142.17822266 C4.78812559 150.71241928 -9.59812493 157.14848494 -26.8125 152.75 C-39.78004675 148.42748442 -51.69469656 140.61822657 -63.34008789 133.58544922 C-67.97009327 130.82571953 -72.66157629 128.17360317 -77.3475647 125.51040649 C-88.01897008 119.44410564 -98.64773474 113.31018682 -109.23486328 107.09765625 C-114.23953631 104.16825542 -119.26234164 101.27880573 -124.32421875 98.44921875 C-125.35957764 97.87002686 -126.39493652 97.29083496 -127.46166992 96.6940918 C-129.41851644 95.60300638 -131.37811585 94.51683631 -133.34106445 93.43676758 C-148.03905056 85.24543146 -148.03905056 85.24543146 -152 79 C-152.86675404 72.17431193 -152.86675404 72.17431193 -150.0625 68.375 C-142.76171408 62.71316602 -134.87646408 58.10497221 -126.84240723 53.56781006 C-124.37796927 52.17586994 -121.91792948 50.77623384 -119.45755005 49.37713623 C-118.18372882 48.65285568 -116.90970036 47.92893948 -115.63546753 47.2053833 C-109.32526238 43.62134112 -103.03493601 40.00316115 -96.75 36.375 C-95.68507324 35.76043945 -94.62014648 35.14587891 -93.52294922 34.51269531 C-87.24331827 30.88471909 -80.97411969 27.23929644 -74.71264648 23.58007812 C-70.77156044 21.27732104 -66.82718647 18.98022488 -62.8828125 16.68310547 C-60.95113941 15.55531462 -59.02146608 14.42409202 -57.09375 13.28955078 C-54.29630238 11.64329466 -51.49254724 10.00826423 -48.6875 8.375 C-47.87047607 7.8900708 -47.05345215 7.4051416 -46.21166992 6.90551758 C-32.42912557 -1.07310842 -15.54581547 -5.58585385 0 0 Z M-58.5 21.375 C-60.87426656 22.79769172 -63.25111506 24.21602062 -65.62890625 25.6328125 C-66.53661522 26.17391663 -66.53661522 26.17391663 -67.46266174 26.72595215 C-74.07122066 30.65460527 -80.75157181 34.45505747 -87.4375 38.25 C-96.54042732 43.41890208 -105.56872076 48.68939576 -114.52099609 54.11499023 C-119.45365617 57.09770974 -124.44411255 59.91630289 -129.53125 62.62890625 C-137.76699729 67.12708669 -137.76699729 67.12708669 -145 73 C-145.58402133 75.41417872 -145.58402133 75.41417872 -145 78 C-141.08320425 81.59228281 -136.57753379 84.22307083 -132 86.875 C-131.30132812 87.30296875 -130.60265625 87.7309375 -129.8828125 88.171875 C-129.19960937 88.56632812 -128.51640625 88.96078125 -127.8125 89.3671875 C-127.20019531 89.72925293 -126.58789062 90.09131836 -125.95703125 90.46435547 C-121.83011733 91.59390252 -117.838933 88.44668507 -114.32421875 86.453125 C-113.42614502 85.94515381 -112.52807129 85.43718262 -111.6027832 84.91381836 C-110.64073975 84.3647583 -109.67869629 83.81569824 -108.6875 83.25 C-107.6771167 82.67580322 -106.6667334 82.10160645 -105.62573242 81.51000977 C-90.71089358 73.01305036 -75.88664549 64.36484816 -61.1875 55.5 C-24.901855 33.65304733 -24.901855 33.65304733 -2.93359375 37.54296875 C-0.12446174 38.47934609 2.37106046 39.6320965 5 41 C5.89960449 41.46792969 5.89960449 41.46792969 6.81738281 41.9453125 C17.44723715 47.54270045 27.75302243 53.75124279 38.11401367 59.82568359 C44.03634977 63.29280704 49.98566333 66.69525268 56 70 C63.37783158 74.05562001 70.66584097 78.25711874 77.9375 82.5 C78.98744141 83.11230469 80.03738281 83.72460938 81.11914062 84.35546875 C88.593813 88.72920867 88.593813 88.72920867 92 91 C97.07968022 90.84496488 101.05330726 87.73008319 105.1875 85.0625 C105.91130859 84.60681641 106.63511719 84.15113281 107.38085938 83.68164062 C111.41234316 81.12594817 111.41234316 81.12594817 115 78 C115.58402133 75.58582128 115.58402133 75.58582128 115 73 C111.68189594 70.01127618 108.11040768 67.7882142 104.23046875 65.6015625 C103.10680908 64.96460449 101.98314941 64.32764648 100.82543945 63.67138672 C100.23300446 63.33814392 99.64056946 63.00490112 99.03018188 62.66156006 C95.86675006 60.88204125 92.71124146 59.08855615 89.5546875 57.296875 C88.91455215 56.93403412 88.27441681 56.57119324 87.61488342 56.19735718 C81.6484944 52.81135497 75.72771805 49.34952805 69.8125 45.875 C60.73590258 40.5533785 51.58298247 35.38266887 42.38769531 30.26928711 C33.89940424 25.53676502 25.5000604 20.66150807 17.140625 15.70507812 C-11.49778256 -1.17756354 -31.11410894 4.85139476 -58.5 21.375 Z M-48.1875 54.9375 C-49.40499162 55.64882699 -50.62308907 56.35911808 -51.84179688 57.06835938 C-54.18070741 58.43026793 -56.51643816 59.79712811 -58.85058594 61.16723633 C-61.53856619 62.73147414 -64.24037861 64.2584405 -66.96484375 65.7578125 C-70.50788355 67.7083006 -73.94995847 69.78474253 -77.375 71.9375 C-81.22048973 74.32267718 -85.06810515 76.62425455 -89.0625 78.75 C-97.9080872 83.47644809 -106.42431604 88.8054417 -115 94 C-112.35758565 96.81549662 -109.87002 98.84582663 -106.4921875 100.70703125 C-105.60112305 101.20348145 -104.71005859 101.69993164 -103.79199219 102.21142578 C-102.82938477 102.73978027 -101.86677734 103.26813477 -100.875 103.8125 C-98.79363275 104.97151111 -96.7129288 106.13171401 -94.6328125 107.29296875 C-93.54645508 107.89802246 -92.46009766 108.50307617 -91.34082031 109.12646484 C-85.78229595 112.24369051 -80.26639851 115.4339982 -74.75 118.625 C-73.656875 119.25583496 -72.56375 119.88666992 -71.4375 120.53662109 C-66.51410479 123.37982279 -61.59653906 126.23201627 -56.6953125 129.11328125 C-32.36900536 144.34084069 -32.36900536 144.34084069 -4.625 146.125 C4.33505564 143.70578498 12.08069826 138.69820644 20 134 C21.68745741 133.00513609 23.37495819 132.01034574 25.0625 131.015625 C27.74635038 129.43072312 30.42851223 127.84316331 33.10717773 126.24951172 C40.83342284 121.6592799 48.62641577 117.19350597 56.4375 112.75 C66.0342502 107.28979675 75.58282846 101.76561523 85 96 C83.74327861 92.22983584 82.70437669 91.99288597 79.27734375 90.13671875 C78.27638672 89.58693359 77.27542969 89.03714844 76.24414062 88.47070312 C75.15294922 87.88224609 74.06175781 87.29378906 72.9375 86.6875 C70.6330574 85.42249688 68.32969734 84.15551998 66.02734375 82.88671875 C65.4387558 82.56339569 64.85016785 82.24007263 64.2437439 81.9069519 C58.4341836 78.70829112 52.71384222 75.36568135 47 72 C37.64189826 66.50307413 28.21024304 61.15106081 18.72265625 55.88085938 C17.75714844 55.34396484 16.79164063 54.80707031 15.796875 54.25390625 C14.85134766 53.72812988 13.90582031 53.20235352 12.93164062 52.66064453 C8.78062097 50.3092758 4.68939302 47.85914255 0.60253906 45.39819336 C-4.02093229 42.91427024 -8.32206473 42.76161167 -13.5 42.6875 C-14.8096875 42.65011719 -16.119375 42.61273438 -17.46875 42.57421875 C-28.85212074 43.15682715 -38.63930143 49.28106954 -48.1875 54.9375 Z " fill="#131212" transform="translate(328,100)"/>
</svg>
